<svg width="257" height="57" viewBox="0 0 257 57" fill="none" xmlns="http://www.w3.org/2000/svg">
<g clip-path="url(#clip0_10_22)">
<path opacity="0.9" d="M16.482 19.089H27.687V25.065H27.936C29.43 22.575 31.3667 20.7767 33.746 19.67C36.1253 18.508 38.56 17.927 41.05 17.927C44.204 17.927 46.777 18.3697 48.769 19.255C50.8163 20.085 52.421 21.2747 53.583 22.824C54.745 24.318 55.5473 26.1717 55.99 28.385C56.488 30.543 56.737 32.95 56.737 35.606V62H44.951V37.764C44.951 34.2227 44.3977 31.5943 43.291 29.879C42.1843 28.1083 40.22 27.223 37.398 27.223C34.1887 27.223 31.8647 28.1913 30.426 30.128C28.9873 32.0093 28.268 35.1357 28.268 39.507V62H16.482V19.089ZM62.6942 32.286C62.8602 29.5193 63.5519 27.223 64.7692 25.397C65.9865 23.571 67.5359 22.1047 69.4172 20.998C71.2985 19.8913 73.4012 19.1167 75.7252 18.674C78.1045 18.176 80.4839 17.927 82.8632 17.927C85.0212 17.927 87.2069 18.093 89.4202 18.425C91.6335 18.7017 93.6532 19.2827 95.4792 20.168C97.3052 21.0533 98.7992 22.2983 99.9612 23.903C101.123 25.4523 101.704 27.5273 101.704 30.128V52.455C101.704 54.3917 101.815 56.2453 102.036 58.016C102.258 59.7867 102.645 61.1147 103.198 62H91.2462C91.0249 61.336 90.8312 60.672 90.6652 60.008C90.5545 59.2887 90.4715 58.5693 90.4162 57.85C88.5349 59.7867 86.3215 61.1423 83.7762 61.917C81.2309 62.6917 78.6302 63.079 75.9742 63.079C73.9269 63.079 72.0179 62.83 70.2472 62.332C68.4765 61.834 66.9272 61.0593 65.5992 60.008C64.2712 58.9567 63.2199 57.6287 62.4452 56.024C61.7259 54.4193 61.3662 52.5103 61.3662 50.297C61.3662 47.8623 61.7812 45.8703 62.6112 44.321C63.4965 42.7163 64.6032 41.4437 65.9312 40.503C67.3145 39.5623 68.8639 38.8707 70.5792 38.428C72.3499 37.93 74.1205 37.5427 75.8912 37.266C77.6619 36.9893 79.4049 36.768 81.1202 36.602C82.8355 36.436 84.3572 36.187 85.6852 35.855C87.0132 35.523 88.0645 35.0527 88.8392 34.444C89.6139 33.78 89.9735 32.8393 89.9182 31.622C89.9182 30.3493 89.6969 29.3533 89.2542 28.634C88.8669 27.8593 88.3135 27.2783 87.5942 26.891C86.9302 26.4483 86.1279 26.1717 85.1872 26.061C84.3019 25.895 83.3335 25.812 82.2822 25.812C79.9582 25.812 78.1322 26.31 76.8042 27.306C75.4762 28.302 74.7015 29.962 74.4802 32.286H62.6942ZM89.9182 41.001C89.4202 41.4437 88.7839 41.8033 88.0092 42.08C87.2899 42.3013 86.4875 42.495 85.6022 42.661C84.7722 42.827 83.8869 42.9653 82.9462 43.076C82.0055 43.1867 81.0649 43.325 80.1242 43.491C79.2389 43.657 78.3535 43.8783 77.4682 44.155C76.6382 44.4317 75.8912 44.819 75.2272 45.317C74.6185 45.7597 74.1205 46.3407 73.7332 47.06C73.3459 47.7793 73.1522 48.6923 73.1522 49.799C73.1522 50.8503 73.3459 51.7357 73.7332 52.455C74.1205 53.1743 74.6462 53.7553 75.3102 54.198C75.9742 54.5853 76.7489 54.862 77.6342 55.028C78.5195 55.194 79.4325 55.277 80.3732 55.277C82.6972 55.277 84.4955 54.8897 85.7682 54.115C87.0409 53.3403 87.9815 52.4273 88.5902 51.376C89.1989 50.2693 89.5585 49.1627 89.6692 48.056C89.8352 46.9493 89.9182 46.064 89.9182 45.4V41.001ZM138.823 40.42C138.823 38.6493 138.657 36.9617 138.325 35.357C137.993 33.697 137.412 32.2583 136.582 31.041C135.808 29.7683 134.784 28.7447 133.511 27.97C132.239 27.1953 130.634 26.808 128.697 26.808C126.761 26.808 125.128 27.1953 123.8 27.97C122.472 28.7447 121.393 29.7683 120.563 31.041C119.789 32.3137 119.208 33.78 118.82 35.44C118.488 37.0447 118.322 38.7323 118.322 40.503C118.322 42.163 118.516 43.823 118.903 45.483C119.291 47.143 119.899 48.637 120.729 49.965C121.615 51.2377 122.694 52.289 123.966 53.119C125.294 53.8937 126.871 54.281 128.697 54.281C130.634 54.281 132.239 53.8937 133.511 53.119C134.839 52.3443 135.891 51.3207 136.665 50.048C137.44 48.72 137.993 47.226 138.325 45.566C138.657 43.906 138.823 42.1907 138.823 40.42ZM138.989 56.522H138.823C137.44 58.846 135.614 60.5337 133.345 61.585C131.132 62.581 128.614 63.079 125.792 63.079C122.583 63.079 119.761 62.4703 117.326 61.253C114.892 59.9803 112.872 58.2927 111.267 56.19C109.718 54.032 108.528 51.5697 107.698 48.803C106.924 46.0363 106.536 43.159 106.536 40.171C106.536 37.2937 106.924 34.527 107.698 31.871C108.528 29.1597 109.718 26.7803 111.267 24.733C112.872 22.6857 114.864 21.0533 117.243 19.836C119.623 18.5633 122.389 17.927 125.543 17.927C128.089 17.927 130.496 18.4803 132.764 19.587C135.088 20.6383 136.914 22.2153 138.242 24.318H138.408V2.738H150.194V62H138.989V56.522ZM156.613 2.738H168.399V25.065H168.648C170.142 22.575 172.051 20.7767 174.375 19.67C176.699 18.508 178.967 17.927 181.181 17.927C184.335 17.927 186.908 18.3697 188.9 19.255C190.947 20.085 192.552 21.2747 193.714 22.824C194.876 24.318 195.678 26.1717 196.121 28.385C196.619 30.543 196.868 32.95 196.868 35.606V62H185.082V37.764C185.082 34.2227 184.528 31.5943 183.422 29.879C182.315 28.1083 180.351 27.223 177.529 27.223C174.319 27.223 171.995 28.1913 170.557 30.128C169.118 32.0093 168.399 35.1357 168.399 39.507V62H156.613V2.738ZM215.441 12.449H203.655V2.738H215.441V12.449ZM203.655 19.089H215.441V62H203.655V19.089ZM224.804 26.974H217.749V19.089H224.804V15.769C224.804 11.951 225.994 8.82466 228.373 6.39C230.753 3.95533 234.349 2.738 239.163 2.738C240.215 2.738 241.266 2.79333 242.317 2.904C243.369 2.95933 244.392 3.01466 245.388 3.07V11.868C244.005 11.702 242.566 11.619 241.072 11.619C239.468 11.619 238.306 12.0063 237.586 12.781C236.922 13.5003 236.59 14.7453 236.59 16.516V19.089H244.724V26.974H236.59V62H224.804V26.974Z" fill="#F3F3F3"/>
</g>
<defs>
<clipPath id="clip0_10_22">
<rect width="257" height="57" fill="white"/>
</clipPath>
</defs>
</svg>
